# xmcd
#
# Track frame offsets: 
#        150
#        16236
#        32236
#        47161
#        67160
#        77939
#        95919
#        112112
#        140767
#        163157
#        181024
#
# Disc length: 2586 seconds
#
# Revision: 1
# Processed by: cddbd v1.5.2PL0 Copyright (c) Steve Scherf et al.
# Submitted via: ExactAudioCopyFreeDBPlugin 1.0
#
DISCID=a00a180b
DTITLE=Druhá Tráva - Shuttle to Bethlehem
DYEAR=2001
DGENRE=Bluegrass
TTITLE0=Shuttle To Bethlehem (Pendl do Betléma)
TTITLE1=When Horses Fly Away (Až koně odletí)
TTITLE2=Before We Say GoodBay (Dřív než se rozloučíme)
TTITLE3=Infiela
TTITLE4=Jumpin' Jack Flash
TTITLE5=Seňore (Senor -Tales of Yankee Power)
TTITLE6=The Last Of The Galleons (Za poslední lodí)
TTITLE7=May Morning Dew - Tribute To Peadar ODonnell
TTITLE8=Ještě Není Tma (Not dark Yet)
TTITLE9=Dancer (Tanečnice)
TTITLE10=When I Take Off My Shoes (Až si jednou sundám boty)
EXTD=
EXTT0=
EXTT1=
EXTT2=
EXTT3=
EXTT4=
EXTT5=
EXTT6=
EXTT7=
EXTT8=
EXTT9=
EXTT10=
PLAYORDER=
